<?xml version="1.0" encoding="UTF-8" standalone="no"?>
<svg
   xmlns:dc="http://purl.org/dc/elements/1.1/"
   xmlns:cc="http://creativecommons.org/ns#"
   xmlns:rdf="http://www.w3.org/1999/02/22-rdf-syntax-ns#"
   xmlns:svg="http://www.w3.org/2000/svg"
   xmlns="http://www.w3.org/2000/svg"
   id="svg8"
   version="1.1"
   viewBox="0 0 76.963348 37.531372"
   height="37.531372mm"
   width="76.963348mm">
  <defs
     id="defs2" />
  <metadata
     id="metadata5">
    <rdf:RDF>
      <cc:Work
         rdf:about="">
        <dc:format>image/svg+xml</dc:format>
        <dc:type
           rdf:resource="http://purl.org/dc/dcmitype/StillImage" />
        <dc:title></dc:title>
      </cc:Work>
    </rdf:RDF>
  </metadata>
  <g
     transform="translate(-30.252434,-88.550112)"
     id="layer1">
    <path
       id="path826"
       d="m 31.74338,125.9445 -0.727604,-0.12329 v -4.74492 -4.74493 h 2.407409 c 2.832328,0 3.925298,0.40701 4.884789,1.81902 0.51259,0.75435 0.645302,1.28717 0.645302,2.5908 0,2.52797 -0.779053,3.98834 -2.524914,4.73307 -0.908974,0.38774 -3.586112,0.65646 -4.684982,0.47025 z m 4.249255,-1.68242 c 2.204659,-1.34415 2.15674,-5.3954 -0.07635,-6.45507 -0.483691,-0.22952 -1.42699,-0.41732 -2.096222,-0.41732 h -1.216784 v 3.70417 3.70417 l 1.256771,-10e-4 c 0.793373,-5.3e-4 1.579702,-0.19788 2.132588,-0.53496 z m 38.323574,1.48686 c -2.77467,-1.0273 -3.90048,-4.12383 -2.52919,-6.95653 0.83105,-1.71672 2.44559,-2.57527 4.80234,-2.55369 1.89937,0.0174 2.44077,0.25337 2.17433,0.94771 -0.12797,0.33349 -0.45703,0.38737 -1.68541,0.27598 -2.71537,-0.24622 -4.36485,1.12696 -4.35574,3.62612 0.009,2.42017 1.4302,3.80669 3.74923,3.65728 l 1.24296,-0.0801 0.08,-1.38906 0.08,-1.38906 h -0.93987 c -0.76348,0 -0.93987,-0.0993 -0.93987,-0.52917 0,-0.47037 0.17639,-0.52916 1.5875,-0.52916 h 1.5875 v 2.35294 c 0,2.66138 0.0816,2.56212 -2.29724,2.79359 -1.02004,0.0992 -1.88234,0.0227 -2.55649,-0.22687 z m 7.698,0.0645 c -0.75424,-0.27547 -0.83402,-0.4302 -0.5728,-1.11094 0.11954,-0.31152 0.30427,-0.34658 0.81098,-0.15393 0.36089,0.13721 1.12192,0.24948 1.69118,0.24948 0.8165,0 1.12801,-0.14194 1.47551,-0.6723 0.65933,-1.00625 0.16063,-1.82681 -1.6237,-2.67165 -1.74244,-0.82501 -2.24419,-1.45109 -2.24419,-2.80034 0,-1.95318 2.39522,-3.17212 4.59201,-2.3369 0.47945,0.18228 0.62072,0.39153 0.52122,0.77203 -0.12028,0.45995 -0.30041,0.50506 -1.51585,0.37961 -1.07745,-0.1112 -1.4773,-0.0444 -1.8269,0.3052 -0.95665,0.95665 -0.4448,1.77786 1.74331,2.79695 0.69566,0.324 1.4398,0.83888 1.65365,1.14419 0.5158,0.73642 0.49415,2.2859 -0.0426,3.05228 -0.82541,1.17844 -2.9775,1.66147 -4.66178,1.04632 z m -41.473433,-0.17713 c 0,-0.14036 0.699582,-2.26163 1.554625,-4.71393 l 1.554626,-4.45871 h 0.855276 0.855276 l 1.558848,4.49117 c 0.857367,2.47015 1.558849,4.58351 1.558849,4.69636 0,0.11285 -0.335444,0.20518 -0.745432,0.20518 -0.672312,0 -0.790803,-0.14394 -1.207982,-1.46738 l -0.462552,-1.46739 -1.614501,0.0783 -1.614498,0.0783 -0.439849,1.32292 c -0.365831,1.1003 -0.558726,1.33701 -1.146267,1.40664 -0.38853,0.046 -0.706419,-0.0311 -0.706419,-0.1715 z m 4.745386,-5.27003 c -0.284779,-0.83675 -0.589142,-1.69995 -0.676365,-1.91823 -0.101372,-0.25371 -0.324995,0.0804 -0.619884,0.92604 -0.957966,2.74725 -1.0033,2.51354 0.487532,2.51354 h 1.326496 z m 6.10253,1.25677 v -4.23334 h -1.455208 c -1.278819,0 -1.455208,-0.0641 -1.455208,-0.52916 0,-0.50304 0.176389,-0.52917 3.571875,-0.52917 3.395485,0 3.571875,0.0261 3.571875,0.52917 0,0.46502 -0.17639,0.52916 -1.455209,0.52916 h -1.455208 v 4.23334 4.23333 h -0.661458 -0.661459 z m 6.085417,-0.52917 v -4.7625 h 0.661458 0.661459 v 4.7625 4.7625 h -0.661459 -0.661458 z m 4.233333,0 v -4.7625 l 0.727604,0.003 c 0.802741,0.004 0.86477,0.0829 3.651288,4.66598 l 1.632405,2.68488 -0.13224,-3.67707 -0.13224,-3.67707 h 0.69847 0.69846 v 4.78007 4.78008 l -0.72351,-0.0837 c -0.70384,-0.0815 -1.27606,-0.88587 -5.015699,-7.05096 -0.117652,-0.19396 -0.177871,1.32409 -0.133821,3.37344 l 0.08009,3.72609 H 62.382845 61.70744 Z m 27.781247,0 v -4.7625 h 0.66146 0.66146 v 4.7625 4.7625 h -0.66146 -0.66146 z m 6.08542,0.52917 v -4.23334 h -1.45521 c -1.27882,0 -1.45521,-0.0641 -1.45521,-0.52916 0,-0.50304 0.17639,-0.52917 3.57188,-0.52917 3.39548,0 3.57187,0.0261 3.57187,0.52917 0,0.46502 -0.17639,0.52916 -1.45521,0.52916 h -1.4552 v 4.23334 4.23333 h -0.66146 -0.66146 z m 6.085421,-0.52917 v -4.7625 h 2.64583 c 2.46944,0 2.64583,0.0353 2.64583,0.52917 0,0.48213 -0.17639,0.52916 -1.98437,0.52916 h -1.98438 v 1.45521 1.45521 h 1.85209 c 1.67569,0 1.85208,0.0504 1.85208,0.52917 0,0.47877 -0.17639,0.52916 -1.85208,0.52916 h -1.85209 v 1.71979 1.7198 h 2.11667 c 1.94028,0 2.11667,0.0441 2.11667,0.52916 0,0.49557 -0.17639,0.52917 -2.77813,0.52917 h -2.77812 z M 31.656149,110.27625 c -1.417294,-0.86427 -1.461817,-1.21895 -1.378304,-10.979938 l 0.07647,-8.938095 0.86407,-0.771761 0.86407,-0.771761 h 9.119777 9.119777 l 0.864069,0.771768 0.864071,0.771767 0.07614,9.011633 c 0.06536,7.736307 0.01794,9.124207 -0.335206,9.807087 -0.803801,1.55438 -1.096163,1.59826 -10.641854,1.59717 -8.023649,-7.9e-4 -8.739705,-0.0385 -9.493078,-0.49787 z M 44.406243,93.988582 c -2.112089,-2.769089 -7.040467,-0.930394 -7.040467,2.626681 0,1.946682 1.044271,3.531347 3.571875,5.420247 1.886616,1.40989 3.268792,2.90682 3.644397,3.94697 0.275921,0.7641 0.334984,-10e-4 0.395555,-5.12662 0.07117,-6.022296 0.07093,-6.025188 -0.57136,-6.867278 z m 11.946713,16.372348 c -1.47923,-0.80262 -1.52468,-1.12588 -1.52468,-10.843929 v -8.903139 l 0.899583,-0.899583 0.899583,-0.899584 h 8.872776 c 5.123651,0 9.159501,0.109011 9.551341,0.257989 0.3732,0.141893 0.91629,0.647909 1.20686,1.124479 0.49964,0.819488 0.52835,1.337899 0.52928,9.556918 10e-4,9.646099 -0.0246,9.802479 -1.74716,10.619879 -1.23736,0.58717 -17.602453,0.57576 -18.687583,-0.013 z m 7.67684,-6.64174 c 0.574598,-0.55763 1.638271,-1.4189 2.363716,-1.91394 0.725447,-0.49504 1.724027,-1.49362 2.219067,-2.219066 0.79398,-1.163526 0.90007,-1.519817 0.90007,-3.022862 0,-1.624248 -0.0454,-1.745451 -0.97093,-2.59366 -1.87554,-1.718802 -4.490632,-1.764358 -5.88892,-0.102587 l -0.680773,0.809054 0.0058,6.131261 0.0058,6.13126 0.500716,-1.1028 c 0.275392,-0.60654 0.970839,-1.55904 1.545434,-2.11666 z m 16.366713,6.4046 c -0.38654,-0.35823 -0.82064,-0.96129 -0.96468,-1.34014 -0.15318,-0.40291 -0.26148,-4.22349 -0.2609,-9.204409 0.001,-7.97919 0.0335,-8.568943 0.51747,-9.362638 0.9958,-1.633161 1.20794,-1.666491 10.60706,-1.666491 9.3324,0 9.759911,0.06289 10.648091,1.566452 0.40177,0.68015 0.45139,1.758749 0.45139,9.811766 v 9.04761 l -0.89958,0.89959 -0.899581,0.89958 h -9.24824 -9.24824 z m 9.35677,-9.52593 v -5.679336 l -0.81396,-0.92705 c -1.38231,-1.574355 -3.7691,-1.599956 -5.45116,-0.05847 -0.73367,0.672362 -0.9598,1.11056 -1.06787,2.069301 -0.26751,2.373365 0.64275,3.853495 3.88638,6.319425 1.69543,1.28894 3.18202,3.01061 3.18202,3.68521 0,0.14864 0.0595,0.27025 0.13229,0.27025 0.0728,0 0.1323,-2.5557 0.1323,-5.67933 z m 2.72955,3.32801 c 0.31776,-0.34734 1.43693,-1.2718 2.48706,-2.05434 2.98132,-2.221671 4.14909,-4.875418 3.06598,-6.967431 -0.91687,-1.770912 -3.6085,-2.635811 -5.36926,-1.72529 -1.53654,0.794581 -1.59057,1.0418 -1.58879,7.270281 0.002,5.32405 0.0286,5.644 0.41445,4.90206 0.22706,-0.43656 0.67281,-1.07794 0.99056,-1.42528 z"
       style="fill:#ffffff;stroke-width:0.26458332" />
  </g>
</svg>
